<svg id="eL2OF1RKjyu1" xmlns="http://www.w3.org/2000/svg" xmlns:xlink="http://www.w3.org/1999/xlink" viewBox="0 0 328.71 330.4" shape-rendering="geometricPrecision" text-rendering="geometricPrecision"><style><![CDATA[#eL2OF1RKjyu2_tr {animation: eL2OF1RKjyu2_tr__tr 3000ms linear 1 normal forwards}@keyframes eL2OF1RKjyu2_tr__tr { 0% {transform: translate(161.27px,76.50294px) rotate(67.641675deg)} 33.333333% {transform: translate(161.27px,76.50294px) rotate(0deg)} 100% {transform: translate(161.27px,76.50294px) rotate(0deg)}} #eL2OF1RKjyu3_tr {animation: eL2OF1RKjyu3_tr__tr 3000ms linear 1 normal forwards}@keyframes eL2OF1RKjyu3_tr__tr { 0% {transform: translate(162.187804px,256.075214px) rotate(67.641675deg)} 33.333333% {transform: translate(162.187804px,256.075214px) rotate(0deg)} 100% {transform: translate(162.187804px,256.075214px) rotate(0deg)}} #eL2OF1RKjyu4_tr {animation: eL2OF1RKjyu4_tr__tr 3000ms linear 1 normal forwards}@keyframes eL2OF1RKjyu4_tr__tr { 0% {transform: translate(240.53px,213.430389px) rotate(67.641675deg)} 33.333333% {transform: translate(240.53px,213.430389px) rotate(0deg)} 100% {transform: translate(240.53px,213.430389px) rotate(0deg)}} #eL2OF1RKjyu5_tr {animation: eL2OF1RKjyu5_tr__tr 3000ms linear 1 normal forwards}@keyframes eL2OF1RKjyu5_tr__tr { 0% {transform: translate(88.01px,119.178149px) rotate(67.641675deg)} 33.333333% {transform: translate(88.01px,119.178149px) rotate(0deg)} 100% {transform: translate(88.01px,119.178149px) rotate(0deg)}} #eL2OF1RKjyu6_tr {animation: eL2OF1RKjyu6_tr__tr 3000ms linear 1 normal forwards}@keyframes eL2OF1RKjyu6_tr__tr { 0% {transform: translate(95.819198px,209.634193px) rotate(76.156923deg)} 33.333333% {transform: translate(95.819198px,209.634193px) rotate(0deg)} 100% {transform: translate(95.819198px,209.634193px) rotate(0deg)}} #eL2OF1RKjyu7_tr {animation: eL2OF1RKjyu7_tr__tr 3000ms linear 1 normal forwards}@keyframes eL2OF1RKjyu7_tr__tr { 0% {transform: translate(240.335942px,120.731946px) rotate(67.641675deg)} 33.333333% {transform: translate(240.335942px,120.731946px) rotate(0deg)} 100% {transform: translate(240.335942px,120.731946px) rotate(0deg)}}]]></style><g id="eL2OF1RKjyu2_tr" transform="translate(161.27,76.50294) rotate(67.641675)"><path id="eL2OF1RKjyu2" d="M170.85,82.63C184.601181,46.289538,225.049186,27.797458,261.529591,41.172966C298.009995,54.548475,316.918412,94.803536,303.92,131.42" transform="translate(-170.849999,-84.122539)" fill="none" stroke="rgb(0,153,205)" stroke-width="10" stroke-miterlimit="10"/></g><g id="eL2OF1RKjyu3_tr" transform="translate(162.187804,256.075214) rotate(67.641675)"><path id="eL2OF1RKjyu3" d="M171.47,259.09C162.809882,282.880316,142.115621,300.243357,117.182544,304.638632C92.249467,309.033908,66.865503,299.793672,50.592544,280.398632C34.319585,261.003592,29.629882,234.400316,38.29,210.61" transform="translate(-173.934281,-258.162862)" fill="none" stroke="rgb(0,153,205)" stroke-width="10" stroke-miterlimit="10"/></g><g id="eL2OF1RKjyu4_tr" transform="translate(240.53,213.430389) rotate(67.641675)"><path id="eL2OF1RKjyu4" d="M250.55,216C267.017395,235.407101,271.813266,262.154347,263.114471,286.073829C254.415677,309.993312,233.558267,327.411234,208.471142,331.706208C183.384016,336.001183,157.920311,326.513545,141.76,306.85" transform="translate(-250.11,-221.049995)" fill="none" stroke="rgb(249,178,51)" stroke-width="10" stroke-miterlimit="10"/></g><g id="eL2OF1RKjyu5_tr" transform="translate(88.01,119.178149) rotate(67.641675)"><path id="eL2OF1RKjyu5" d="M97.42,128.34C72.660795,98.324513,76.731162,53.96053,106.53883,28.951518C136.346497,3.942507,180.742926,7.642232,206,37.24" transform="translate(-97.589996,-126.797741)" fill="none" stroke="rgb(249,178,51)" stroke-width="10" stroke-miterlimit="10"/></g><g id="eL2OF1RKjyu6_tr" transform="translate(95.819198,209.634193) rotate(76.156923)"><path id="eL2OF1RKjyu6" d="M97.59,216.52C59.200001,222.867801,22.871915,197.075891,16.206203,158.739812C9.540492,120.403734,35.030475,83.863164,73.31,76.88" transform="translate(-97.59,-216)" fill="none" stroke="rgb(230,51,42)" stroke-width="10" stroke-miterlimit="10"/></g><g id="eL2OF1RKjyu7_tr" transform="translate(240.335942,120.731946) rotate(67.641675)"><path id="eL2OF1RKjyu7" d="M250.11,127.75C288.425854,121.436185,324.687037,147.133043,331.427129,185.376213C338.16722,223.619383,312.875744,260.164467,274.71,267.33" transform="translate(-256.259273,-126.809298)" fill="none" stroke="rgb(230,51,42)" stroke-width="10" stroke-miterlimit="10"/></g><circle id="eL2OF1RKjyu8" r="80.87" transform="matrix(0.92388 -0.382683 0.382683 0.92388 164.357786 165.198146)" fill="rgb(0,153,205)" stroke="none" stroke-width="1"/><circle id="eL2OF1RKjyu9" r="70.87" transform="matrix(0.707107 -0.707107 0.707107 0.707107 164.354302 165.200137)" fill="none" stroke="rgb(255,255,255)" stroke-width="7" stroke-miterlimit="10"/><circle id="eL2OF1RKjyu10" r="21.76" transform="matrix(1 0 0 1 202.09 134.45)" fill="rgb(255,255,255)" stroke="none" stroke-width="1"/><circle id="eL2OF1RKjyu11" r="7.68" transform="matrix(1 0 0 1 115.72 206.45)" fill="rgb(255,255,255)" stroke="none" stroke-width="1"/></svg>